<svg width="620" height="124" xmlns="http://www.w3.org/2000/svg" version="1.1">
 <!-- Generator: Sketch 52.4 (67378) - http://www.bohemiancoding.com/sketch -->

 <title>logo-meta</title>
 <desc>Created with Sketch.</desc>
 <g>
  <title>Layer 1</title>
  <path stroke="null" fill-rule="nonzero" fill="#BBBBBB" id="Shape" d="m142.3117,76.55l-7.15448,-0.635c-5.61568,-0.453 -7.78875,-2.724 -7.78875,-6.539c0,-4.54 3.44161,-7.357 9.96282,-7.357c4.6194,0 8.69428,1.091 11.86762,3.543l4.25738,-4.269c-3.98912,-3.269 -9.69255,-4.812 -16.03126,-4.812c-9.51005,0 -16.39427,4.9 -16.39427,13.077c0,7.356 4.62039,11.261 13.31467,11.988l7.33598,0.635c5.16192,0.455 7.42674,2.634 7.42674,6.539c0,5.268 -4.52864,7.9 -11.86762,7.9c-5.52592,0 -10.32583,-1.453 -13.86218,-5.177l-4.34814,4.36c4.89165,4.722 10.77859,6.448 18.29608,6.448c10.77759,0 18.11457,-5 18.11457,-13.622c0,-8.358 -5.34442,-11.353 -13.13416,-12.081l0.00499,0.002zm55.76086,-20.071c-7.14949,0 -11.6532,1.413 -15.59944,6.423c-0.05385,0.069 4.27833,4.292 4.27833,4.292c2.62584,-3.723 5.52393,-5.084 11.22936,-5.084c8.15176,0 11.41286,3.269 11.41286,9.807l0,4.268l-13.40143,0c-9.96282,0 -15.39599,5.087 -15.39599,12.9c-0.10465,3.3493 1.09747,6.60747 3.35086,9.082c2.80834,2.907 6.43045,4.087 12.58865,4.087c5.97769,0 9.23879,-1.18 12.8649,-4.814l0,4.268l6.52121,0l0,-30.335c0,-9.717 -5.88395,-14.892 -17.84232,-14.892l-0.00698,-0.002zm11.3251,29.429c0,3.725 -0.72502,6.268 -2.26482,7.72c-2.80734,2.725 -6.1582,3 -9.96182,3c-7.06472,0 -10.23607,-2.453 -10.23607,-7.63c0,-5.177 3.2611,-7.9 9.96481,-7.9l12.4979,0l0,4.81zm32.06152,-23.611c4.25639,0 6.88122,1.271 10.23408,4.994c0,0 4.36609,-4.255 4.33019,-4.293c-4.57252,-4.905 -8.45393,-6.513 -14.56027,-6.513c-11.23136,0 -19.74612,7.628 -19.74612,22.885c0,15.257 8.51277,22.887 19.74612,22.887c6.1582,0 10.05257,-1.636 14.67197,-6.63l-4.43789,-4.269c-3.35086,3.724 -5.97769,5.086 -10.23408,5.086c-4.07766,0.16338 -7.96165,-1.74987 -10.32483,-5.086c-2.08332,-2.906 -2.89809,-6.357 -2.89809,-11.988c0,-5.631 0.81478,-9.082 2.89809,-11.988c2.36267,-3.33661 6.24711,-5.24971 10.32483,-5.085l-0.00399,0zm55.85161,-5.334l-8.12982,0l-20.20487,19.72l0.03092,-39.639l-6.5232,0l0,64.664l6.5222,0l-0.03092,-16.309l7.90942,-7.959l14.94722,24.268l8.06001,0l-18.48955,-28.8l15.90859,-15.945zm30.13079,-1.1c-6.68177,0 -11.19645,2.611 -13.97487,5.57c-4.07987,4.265 -5.12103,9.4 -5.12103,17.582c0,8.268 1.04116,13.4 5.12103,17.669c2.77842,2.959 7.29111,5.571 13.97487,5.571c6.68376,0 11.28521,-2.612 14.06163,-5.571c4.07987,-4.265 5.12202,-9.4 5.12202,-17.669c0,-8.181 -1.04216,-13.317 -5.12202,-17.582c-2.77642,-2.959 -7.37986,-5.57 -14.06163,-5.57zm5.29555,34.206c-1.41472,1.37021 -3.33088,2.0939 -5.29555,2c-1.93864,0.09401 -3.82776,-0.63149 -5.20779,-2c-2.3446,-2.35 -2.6039,-6.353 -2.6039,-11.054c0,-4.701 0.25929,-8.616 2.6039,-10.966c1.37983,-1.36883 3.26909,-2.09438 5.20779,-2c1.96475,-0.09438 3.88109,0.62938 5.29555,2c2.34261,2.35 2.6039,6.266 2.6039,10.966c0,4.7 -0.26129,8.7 -2.6039,11.054zm43.93512,-33.686l-9.11313,28.025l-9.2009,-28.027l-11.89355,0l16.66752,45.347l8.85285,0l16.57777,-45.347l-11.89056,0.002zm31.08818,-0.522c-11.71703,0 -19.70324,8.355 -19.70324,23.152c0,18.366 10.24305,23.24 20.91892,23.24c8.15974,0 12.58765,-2.525 17.18711,-7.139l-6.85629,-6.7c-2.86518,2.873 -5.29655,4.265 -10.24405,4.265c-6.33671,0 -9.895,-4.265 -9.895,-10.1l28.29679,0l0,-5.045c0,-12.447 -7.11758,-21.673 -19.70424,-21.673zm-8.59256,18.974c0.01656,-1.67845 0.37104,-3.33626 1.04216,-4.874c1.42215,-2.87818 4.34855,-4.69911 7.55189,-4.69911c3.20334,0 6.12975,1.82093 7.55189,4.69911c0.66892,1.5384 1.02297,3.19583 1.04116,4.874l-17.18711,0zm44.94237,-14.1l0,-4.352l-11.02492,0l0,45.347l11.28421,0l0,-27.329c0,-5.745 3.81958,-8.357 7.2921,-8.357c2.28836,-0.07928 4.48522,0.90444 5.95376,2.666l8.54269,-8.584c-3.12547,-3.134 -6.24995,-4.265 -10.67687,-4.265c-4.30465,-0.05112 -8.4317,1.71819 -11.36898,4.874l-0.00199,0zm25.54929,-9.079l0,50.028l11.28321,0l0,-35.754l8.33326,0l0,-8.616l-8.33326,0l0,-4.961c0,-2.611 1.30344,-4.091 3.98912,-4.091l4.34016,0l0,-9.573l-6.42248,0c-9.20289,0 -13.194,6.527 -13.194,12.967l0.00399,0zm66.06973,4.2c-6.68177,0 -11.19745,2.611 -13.97487,5.57c-4.07887,4.265 -5.12103,9.4 -5.12103,17.582c0,8.268 1.04216,13.4 5.12103,17.669c2.77742,2.959 7.29111,5.571 13.97487,5.571c6.68376,0 11.28521,-2.612 14.06163,-5.571c4.07887,-4.265 5.12103,-9.4 5.12103,-17.669c0,-8.181 -1.04216,-13.317 -5.12103,-17.582c-2.77742,-2.959 -7.37986,-5.57 -14.06163,-5.57zm5.29555,34.206c-1.41472,1.37021 -3.33088,2.0939 -5.29555,2c-1.93864,0.09401 -3.82776,-0.63149 -5.20779,-2c-2.34361,-2.35 -2.6039,-6.353 -2.6039,-11.054c0,-4.701 0.26029,-8.616 2.6039,-10.966c1.37983,-1.36883 3.26908,-2.09438 5.20779,-2c1.96475,-0.09438 3.88109,0.62938 5.29555,2c2.34261,2.35 2.6039,6.266 2.6039,10.966c0,4.7 -0.26129,8.7 -2.6039,11.054zm67.19865,-33.684l-7.29011,28.03l-9.28766,-28.025l-8.2445,0l-9.20289,28.025l-7.29011,-28.027l-11.97832,0l13.88811,45.347l9.28766,0l9.46119,-28.46l9.46119,28.46l9.28766,0l13.80134,-45.347l-11.89355,-0.003zm-102.30386,31.687l0,-49.376l-11.28022,0l0,50.072c0,6.441 3.90734,12.969 13.194,12.969l6.42248,0l0,-9.575l-4.33916,0c-2.86419,0 -3.98912,-1.392 -3.98912,-4.09l-0.00798,0zm-332.39307,-24.011l6.02955,-6.046l-12.34631,0l0,-14.7l-6.52121,0l0,46.412c0,6.629 3.80362,11.988 11.41186,11.988l4.6174,0l0,-5.631l-3.44061,0c-4.16563,0 -6.06745,-2.453 -6.06745,-6.539l0,-25.484l6.31676,0z"/>
  <polygon stroke="null" points="87.76054382324219,79.80799999833107 98.73062133789062,79.80799999833107 98.73062133789062,123.80799999833107 0,123.80799999833107 0,79.80799999833107 10.970069885253906,79.80799999833107 10.970069885253906,112.80799999833107 87.76054382324219,112.80799999833107 " fill="#BBBBBB" id="Path"/>
  <path stroke="null" fill-rule="nonzero" fill="#BBBBBB" id="Shape" d="m22.92534,76.538l53.87799,11.355l2.26482,-10.8l-53.87799,-11.36l-2.26482,10.805zm7.12955,-25.869l49.90982,23.308l4.64931,-10.009l-49.91082,-23.308l-4.64832,10.009zm13.81032,-24.553l42.31255,35.331l7.04677,-8.485l-42.31255,-35.33l-7.04677,8.484zm27.31248,-26.116l-8.83589,6.59l32.85835,44.3l8.83589,-6.589l-32.85835,-44.301zm-49.23755,101.808l54.85034,0l0,-11l-54.85034,0l0,11z"/>
 </g>
</svg>